<?xml version="1.0" encoding="utf-8"?>
<!-- Generator: Adobe Illustrator 18.1.1, SVG Export Plug-In . SVG Version: 6.00 Build 0)  -->
<svg version="1.1" id="Layer_1" xmlns="http://www.w3.org/2000/svg" xmlns:xlink="http://www.w3.org/1999/xlink" x="0px" y="0px"
	 viewBox="0 0 285 285" enable-background="new 0 0 285 285" xml:space="preserve">
<path id="a" fill="none" stroke="#C8C8C8" stroke-width="6" stroke-linecap="round" stroke-linejoin="round" stroke-miterlimit="10" d="
	M132.097,167.004c-5.673-5.676-5.673-14.924,0-20.6c5.36-5.359,59.162-41.094,65.889-45.508c0.104-0.105,0.314,0.104,0.209,0.209
	c-4.411,6.726-40.245,60.54-45.502,65.898C147.125,172.682,137.875,172.682,132.097,167.004"/>
<g id="b">
	<path fill="none" stroke="#C8C8C8" stroke-width="6" stroke-linecap="round" stroke-linejoin="round" stroke-miterlimit="10" d="
		M189.895,167.846l26.901,15.555c7.565-12.82,11.979-27.746,11.979-43.825c0-47.613-38.67-86.29-86.274-86.29
		c-47.603,0-86.274,38.676-86.274,86.29c0,16.184,4.413,31.317,12.189,44.245l27.742-15.978"/>
</g>
</svg>