<?xml version="1.0" encoding="utf-8"?>
<!-- Generator: Adobe Illustrator 19.2.1, SVG Export Plug-In . SVG Version: 6.00 Build 0)  -->
<svg version="1.1" id="Layer_1" xmlns="http://www.w3.org/2000/svg" xmlns:xlink="http://www.w3.org/1999/xlink" x="0px" y="0px"
	 viewBox="0 0 285 285" style="enable-background:new 0 0 285 285;" xml:space="preserve">
<style type="text/css">
	.st0{fill:none;stroke:#C8C8C8;stroke-width:6;stroke-linecap:round;stroke-linejoin:round;stroke-miterlimit:10;}
	.st1{fill:none;stroke:#C8C8C8;stroke-width:6;stroke-miterlimit:10;}
</style>
<g>
	<path class="st0" d="M228.6,133.2c-3.3-44.6-40.6-79.9-86-79.9c-47.6,0-86.3,38.7-86.3,86.3c0,16.2,4.4,31.3,12.2,44.2l27.7-16"/>
	<path class="st1" d="M132.1,167c-5.7-5.7-5.7-14.9,0-20.6c5.4-5.4,59.2-41.1,65.9-45.5
		c0.1-0.1,0.3,0.1,0.2,0.2c-4.4,6.7-40.2,60.5-45.5,65.9C147.1,172.7,137.9,172.7,132.1,167"/>
	<path class="st1" d="M201.2,146.5c-3.3,0-6,2.7-6,6v39.4c0,3.3,2.7,6,6,6h39.4c3.3,0,6-2.7,6-6v-39.4c0-3.3-2.7-6-6-6h-12.1
		 M201.2,146.5h27.3"/>
	<path class="st1" d="M212.3,158.8c0.7-0.6,1.7-0.5,2.8,0.2l16.5,10.7c2,1.3,2,3.4,0,4.7l-16.5,10.7c-2,1.3-3.6,0.4-3.6-2V161
		C211.5,160,211.8,159.2,212.3,158.8"/>
</g>
</svg>