<?xml version="1.0" encoding="utf-8"?>
<!-- Generator: Adobe Illustrator 19.2.1, SVG Export Plug-In . SVG Version: 6.00 Build 0)  -->
<svg version="1.1" id="Layer_1" xmlns="http://www.w3.org/2000/svg" xmlns:xlink="http://www.w3.org/1999/xlink" x="0px" y="0px"
	 viewBox="0 0 285 285" style="enable-background:new 0 0 285 285;" xml:space="preserve">
<style type="text/css">
	.st0{fill:none;stroke:#C8C8C8;stroke-width:6;stroke-linecap:round;stroke-linejoin:round;stroke-miterlimit:10;}
	.st1{fill:none;stroke:#C8C8C8;stroke-width:6;stroke-miterlimit:10;}
</style>
<g>
	<path class="st0" d="M229,135c-2.3-45.6-40.1-81.9-86.2-81.9c-47.6,0-86.4,38.6-86.4,86.4c0,16.2,4.4,31.3,12.1,44.3l27.8-16"/>
	<path class="st0" d="M132.3,166.8c-5.7-5.7-5.7-14.9,0-20.6c5.4-5.4,59.2-41,65.9-45.5c0.1-0.1,0.3,0.1,0.2,0.2
		c-4.4,6.7-40.3,60.5-45.5,65.9C147.3,172.5,138.2,172.5,132.3,166.8"/>
	<path class="st1" d="M228.7,147.4h8c12.1,0,21.9,9.1,22.2,20.5v21.9c0,3.9-3.3,7.1-7.6,7.1c-1.9,0-3.7-0.8-5-1.9l-10.5-10.7
		c-0.2,0-22.8,0-23,0L202.3,195c-1.3,1.2-3.1,1.9-5,1.9c-4.2,0-7.6-3.2-7.6-7.1V168c0.3-11.6,10.2-20.5,22.2-20.5L228.7,147.4"/>
	<path class="st1" d="M235.9,156.9c-2.2,0-3.8,1.6-3.8,3.8c0,2.2,1.6,3.8,3.8,3.8s3.8-1.6,3.8-3.8
		C239.7,158.6,237.8,156.9,235.9,156.9"/>
	<path class="st0" d="M208.6,175.9v-18.4"/>
	<path class="st0" d="M217.6,166.8h-18.2"/>
</g>
</svg>
